<svg xmlns="http://www.w3.org/2000/svg" width="403.4" height="387.8" viewBox="102 307.2 403.4 387.8"><path fill="#fff" d="M505.4 502.7c-.1-22.9-17.7-41.6-40.5-44.3 16.5-14.2 21.1-38.1 9.6-57-10.6-17.5-31.6-25.4-51-20.7 4.5-19-4-39.2-22.3-49.1-18.2-9.9-40.6-6.5-55.2 7-5.9-18.5-23.7-31.7-44.8-31.4-21 .3-38.8 14.1-44.6 32.8-14.7-13-37.1-15.7-55.2-5.3-18.2 10.5-26.6 31-22 49.8-19.5-4.1-40.4 4.4-50.9 22.3s-7.2 39.5 6.5 53.5c-19.1 6-33 23.4-33 43.9.1 20.4 14 37.5 33.2 42.8-13.6 14.4-16.7 36.2-6.1 53.7s31.6 25.4 51 20.7c-4.5 19 4 39.2 22.3 49.1 18.3 9.9 40.6 6.5 55.2-7 5.9 18.5 23.7 31.7 44.8 31.4 21-.3 38.8-14.1 44.6-32.8 14.7 13 37 15.8 55.2 5.2 18.2-10.5 26.6-31 22-49.8 19.5 4.1 40.4-4.4 50.9-22.3 9.4-16 7.8-35-2.4-48.8 19-5.9 32.8-23.3 32.7-43.7"/><path d="M401.1 441.3c-7.2 3.2-14.9 5.3-23 6.3 8.2-5 14.6-12.8 17.6-22.1-7.7 4.6-16.3 7.9-25.4 9.7-7.3-7.8-17.7-12.6-29.2-12.6-22.1 0-40 17.9-40 40 0 3.2.3 6.2 1 9.1-33.3-1.7-62.7-17.6-82.5-41.8-3.4 5.9-5.4 12.8-5.4 20.1 0 13.9 7 26.1 17.8 33.3-6.6-.2-12.7-2-18.1-5v.5c0 19.4 13.8 35.6 32.1 39.2-3.3.9-6.9 1.4-10.5 1.4-2.6 0-5.1-.3-7.5-.7 5.1 15.9 19.8 27.5 37.4 27.8-13.7 10.8-30.9 17.1-49.7 17.1-3.2 0-6.4-.2-9.5-.6 17.7 11.4 38.7 18 61.3 18 73.5 0 113.8-60.9 113.8-113.8 0-1.7 0-3.4-.1-5.2 7.8-5.7 14.6-12.7 19.9-20.7"/></svg>