<svg xmlns="http://www.w3.org/2000/svg" width="403.4" height="387.8" viewBox="102 307.2 403.4 387.8"><path fill="#fff" d="M505.4 502.8c-.1-22.9-17.7-41.6-40.5-44.3 16.5-14.2 21.1-38.1 9.6-57-10.6-17.5-31.6-25.4-51-20.7 4.5-19-4-39.2-22.3-49.1-18.2-9.9-40.6-6.5-55.2 7-5.9-18.5-23.7-31.7-44.8-31.4-21 .3-38.8 14.1-44.6 32.8-14.7-13-37.1-15.7-55.2-5.3-18.2 10.5-26.6 31-22 49.8-19.5-4.1-40.4 4.4-50.9 22.3s-7.2 39.5 6.5 53.5c-19.1 6-33 23.4-33 43.9.1 20.4 14 37.5 33.2 42.8-13.6 14.4-16.7 36.2-6.1 53.7s31.6 25.4 51 20.7c-4.5 19 4 39.2 22.3 49.1 18.3 9.9 40.6 6.5 55.2-7 5.9 18.5 23.7 31.7 44.8 31.4 21-.3 38.8-14.1 44.6-32.8 14.7 13 37 15.8 55.2 5.2 18.2-10.5 26.6-31 22-49.8 19.5 4.1 40.4-4.4 50.9-22.3 9.4-16 7.8-35-2.4-48.8 19-6 32.8-23.4 32.7-43.7"/><path d="M319.3 602.5h-42V501.2h-21v-35h21v-21c0-28.5 11.8-45.5 45.5-45.5h28v35h-17.5c-13.1 0-14 4.9-14 14v17.5H351l-3.7 35h-28v101.3z"/></svg>