<svg xmlns="http://www.w3.org/2000/svg" xmlns:xlink="http://www.w3.org/1999/xlink" viewBox="0 0 295.6 75.8"><defs><path id="a" d="M295.6 0v75.8H0V0"/></defs><clipPath id="b"><use xlink:href="#a" overflow="visible"/></clipPath><path clip-path="url(#b)" fill="#ccc" d="M281.8 166.6c-3.2-9.4-14.4-18.4-22.5-26.1 5.4-4.7 14.2-9 21.7-15.2l.9-1.3-1.4-.5c-42.4-15.5-92.7-9-133.1-3.8l-5.8.8c-46 5.8-94.7 9.5-139.6-2.9l-2.2-.6.7 2.1c3.2 9.4 14 17.1 22 24.8-5.4 4.7-35.6 17.4-35.6 17.4l4 1.6c42.4 15.5 103.6 8.4 144.1 3.2l5.8-.7c46-5.9 94.7-9.5 139.6 2.9l2.2.6-.8-2.3z"/><defs><path id="c" d="M295.6 0v75.8H0V0"/></defs><clipPath id="d"><use xlink:href="#c" overflow="visible"/></clipPath><path clip-path="url(#d)" fill="#fff" d="M111.8 67.9c5.3-.7 10.4-2 14.6-4.1l1-.5s-8.1-2.4-9.6-3.4c1.8-2.2 4.4-4.5 4.9-7l.1-.6-.5.2c-4.1 1.7-8.4 2.8-12.9 3.5l2.4 11.9z"/><defs><path id="e" d="M295.6 0v75.8H0V0"/></defs><defs><path id="f" d="M295.6 0v75.8H0V0"/></defs><defs><path id="g" d="M295.6 0v75.8H0V0"/></defs><defs><path id="h" d="M295.6 0v75.8H0V0"/></defs><defs><path id="i" d="M295.6 0v75.8H0V0"/></defs><clipPath id="j"><use xlink:href="#i" overflow="visible"/></clipPath><path clip-path="url(#j)" fill="#fff" d="M294.9 70.2c-3.2-9.4-14.4-18.4-22.5-26.1 5.4-4.7 14.2-9 21.7-15.2l.9-1.3-1.4-.5c-42.4-15.5-92.7-9-133.1-3.8l-5.8.8c-46 5.8-94.7 9.5-139.6-2.9l-2.2-.6.7 2.1c3.2 9.4 14 17.1 22 24.8C30.2 52.1 0 64.9 0 64.9l4 1.6c42.4 15.5 103.6 8.4 144.1 3.2l5.8-.7c46-5.8 94.7-9.5 139.6 2.9l2.2.6-.8-2.3z"/><defs><path id="k" d="M295.6 0v75.8H0V0"/></defs><clipPath id="l"><use xlink:href="#k" overflow="visible"/></clipPath><path clip-path="url(#l)" d="M66.4 46.4c1.8-1.7 3-2.3 4.5-2.2 3.7.2 6.4 3.5 6.4 8 0 4.7-2.7 8-6.6 7.9-1.6-.1-2.6-.6-4-2l-.6-.7v4.8c0 .5 0 .9.3 1.2.2.3.6.3.8.3l2.9.2v2c-3.9-.2-7.8-.5-11.7-.8v-2l2 .2c.6 0 1.2 0 1.2-1l-.1-14.1c0-1.2 0-2.1-1.1-2.2l-2.1-.2v-1.9c2.5.2 5 .5 7.5.6v2.6c.2-.3.4-.5.6-.7m-.3 5.7c0 4.4 1.7 5.4 3 5.5 2.2.1 3.4-1.9 3.4-5.5 0-3.4-1.3-5.4-3.3-5.5-2.1-.1-3.1 1.7-3.1 5.5"/><defs><path id="m" d="M295.6 0v75.8H0V0"/></defs><clipPath id="n"><use xlink:href="#m" overflow="visible"/></clipPath><path clip-path="url(#n)" d="M86.1 44.9c0 .7.1 11 .1 11 0 1.2.1 1.8 1.4 1.8h2.1v2c-3.8.1-7.6.1-11.4.1v-2.1H80c.7 0 1.1 0 1.4-.3.3-.3.3-.7.3-1.3 0-2.6 0-5.1-.1-7.7v-.5c0-.3 0-.5-.2-.7-.2-.2-.5-.3-.9-.2h-2.3v-2.1h7.9"/><defs><path id="o" d="M295.6 0v75.8H0V0"/></defs><clipPath id="p"><use xlink:href="#o" overflow="visible"/></clipPath><path clip-path="url(#p)" d="M89.6 52.5c0-4.8 3.4-8.4 8.3-8.6 2.3-.1 4.3.6 5.6 2 1.4 1.5 2.1 3.6 2.1 6.3v.2c-3.6.2-7.2.4-10.7.6v.7c0 3.7 1.9 4.3 3.5 4.3 2.1-.1 3.3-1.1 3.7-3.1l3.3-.2c-.2 1.1-.7 2.2-1.4 3-1.4 1.5-3.2 2.3-5.7 2.4-5.3.3-8.6-2.7-8.7-7.6m5.4-2.1v.4c1.9-.1 3.8-.2 5.8-.3v-.4c0-1.1 0-4.3-2.7-4.2-2.7.2-3.1 2.6-3.1 4.5"/><defs><path id="q" d="M295.6 0v75.8H0V0"/></defs><clipPath id="r"><use xlink:href="#q" overflow="visible"/></clipPath><g clip-path="url(#r)"><g opacity=".65"><defs><path id="s" d="M138.7 39.9h11.6v15.7h-11.6z"/></defs><clipPath id="t"><use xlink:href="#s" overflow="visible"/></clipPath><path clip-path="url(#t)" d="M146.7 39.9c0 .7.1 10.9.1 10.9 0 1.2.1 1.8 1.5 1.7l2.1-.3v2c-3.8.5-7.6 1-11.5 1.4v-2l1.7-.2c.7-.1 1.1-.2 1.4-.5.3-.3.3-.7.3-1.3l-.1-7.6v-.5c0-.3 0-.5-.2-.7-.2-.2-.5-.2-.9-.1l-2.3.3v-2.1c2.6-.3 5.2-.7 7.9-1"/></g><defs><path id="u" d="M295.6 0v75.8H0V0"/></defs><clipPath id="v"><use xlink:href="#u" overflow="visible"/></clipPath><path clip-path="url(#v)" d="M80.6 39c0-1.6 1.1-2.8 2.7-2.8s2.9 1.2 2.9 2.8c0 1.6-1.2 2.8-2.8 2.9-1.6 0-2.8-1.3-2.8-2.9"/><defs><path id="w" d="M295.6 0v75.8H0V0"/></defs><clipPath id="x"><use xlink:href="#w" overflow="visible"/></clipPath><g clip-path="url(#x)"><g opacity=".65"><defs><path id="y" d="M173.7 35.7h11.6v15.7h-11.6z"/></defs><clipPath id="z"><use xlink:href="#y" overflow="visible"/></clipPath><path clip-path="url(#z)" d="M181.6 35.7c0 .7.1 10.9.1 10.9 0 1.2.1 1.8 1.5 1.7l2.1-.2v2c-3.8.4-7.6.8-11.5 1.2v-2l1.7-.2c.7-.1 1.1-.2 1.4-.5.3-.3.3-.7.3-1.3l-.1-7.7v-.5c0-.3 0-.5-.2-.7-.2-.2-.5-.2-.8-.2l-2.3.3v-2.1c2.6-.1 5.2-.4 7.8-.7"/></g><defs><path id="A" d="M295.6 0v75.8H0V0"/></defs><clipPath id="B"><use xlink:href="#A" overflow="visible"/></clipPath><g clip-path="url(#B)"><g opacity=".65"><defs><path id="C" d="M215.6 32.4h16v16.3h-16z"/></defs><clipPath id="D"><use xlink:href="#C" overflow="visible"/></clipPath><path clip-path="url(#D)" d="M215.6 40.9c0-4.8 3.4-8.5 8.3-8.5 2.3 0 4.3.8 5.6 2.4 1.4 1.6 2.1 3.8 2.1 6.5v.2c-3.6-.1-7.1-.1-10.7-.1v.7c0 3.7 1.9 4.4 3.5 4.4 2.1 0 3.3-.9 3.7-2.9 1.1 0 2.2 0 3.3.1-.2 1.1-.7 2.1-1.4 2.9-1.4 1.4-3.2 2.1-5.7 2.1-5.4 0-8.7-3-8.7-7.8m5.3-2.1v.4h5.8v-.4c0-1.1 0-4.3-2.7-4.3s-3 2.4-3.1 4.3"/></g><defs><path id="E" d="M295.6 0v75.8H0V0"/></defs><clipPath id="F"><use xlink:href="#E" overflow="visible"/></clipPath><g clip-path="url(#F)"><g opacity=".65"><defs><path id="G" d="M107.3 41.3h30.5v17.5h-30.5z"/></defs><clipPath id="H"><use xlink:href="#G" overflow="visible"/></clipPath><path clip-path="url(#H)" d="M125.3 45.2c1.2-2.3 2.8-3.5 4.9-3.7 1.4-.2 2.5-.1 3.4.7.9.9 1.3 1.9 1.3 4.4v5.6c0 .8 0 1.3.3 1.6.3.2.6.2.9.2l1.6-.2v2c-3 .4-6 .7-9 1v-2c.2 0 .4 0 .6-.1 1.1-.1 1.1-1.1 1.1-1.7v-4.3c0-2.2-.3-4.4-2.3-4.2-1.8.2-3.1 2.4-3.1 5.4v3.8c0 1.1.3 1.4 1.3 1.3.2 0 .3 0 .5-.1v2c-2.7.3-5.4.6-8.1.8v-2.1c.2 0 .5 0 .7-.1 1.1-.1 1.1-.8 1.1-1.6v-4.6c0-3.6-1.4-4-2.2-3.9-1.7.2-3 2.4-3 5.3v3.9c0 .8.1 1.3 1.1 1.2.2 0 .5 0 .7-.1v2c-3.3.3-6.5.6-9.8.8v-2l2-.1c1.4-.1 1.5-1 1.5-1.9 0-2.2 0-4.5-.1-6.7v-.6c0-.6 0-1-.3-1.2-.2-.2-.5-.2-.8-.2l-2.4.2v-2.1l7.6-.6v3.5l.7-1.1c1.6-2.6 2.9-3.2 4.5-3.3 2.2-.2 3.4.5 4.5 2.7l.3.6c.3-.1.4-.3.5-.5"/></g><defs><path id="I" d="M295.6 0v75.8H0V0"/></defs><clipPath id="J"><use xlink:href="#I" overflow="visible"/></clipPath><g clip-path="url(#J)"><g opacity=".65"><defs><path id="K" d="M151.4 37.2h21.3V54h-21.3z"/></defs><clipPath id="L"><use xlink:href="#K" overflow="visible"/></clipPath><path clip-path="url(#L)" d="M159.8 41.2c1.2-2.2 3.1-3.7 5.1-3.9 1.7-.2 3.3.5 4 1.6.6 1 .8 2.2.8 4.5 0 1.5 0 3 .1 4.5 0 1.7.5 1.9 2.2 1.6.2 0 .5 0 .7-.1v2l-9.4 1.1v-2l.6-.1c.4-.1.8-.1 1.1-.4.3-.3.3-.7.3-1.4v-4.5c0-1 0-4-2.3-3.7-2 .2-3.4 2.8-3.4 5.9v3.3c0 1.1.5 1.3 1.5 1.1.2 0 .4 0 .6-.1v2l-9.9 1.2v-2l1.7-.2c.6-.1 1-.2 1.3-.5.3-.3.3-.7.3-1.3 0-2.4 0-4.8-.1-7.3 0-.7 0-1.2-.4-1.4-.2-.2-.5-.2-.8-.2l-2.2.3v-2.1l7.6-1v4.1c.1-.2.3-.6.6-1"/></g><defs><path id="M" d="M295.6 0v75.8H0V0"/></defs><clipPath id="N"><use xlink:href="#M" overflow="visible"/></clipPath><g clip-path="url(#N)"><g opacity=".65"><defs><path id="O" d="M186.2 34.1h14.2v16h-14.2z"/></defs><clipPath id="P"><use xlink:href="#O" overflow="visible"/></clipPath><path clip-path="url(#P)" d="M195.9 46.1c0-1.1-1.1-1.4-1.9-1.6l-1.6-.3-1.5-.2c-3.3-.5-4.6-1.6-4.6-4 0-3 2.4-5.3 6.1-5.6 1.3-.1 2 .1 2.8.5.5.2 1 .3 1.2.2.5 0 .8-.4 1-.8l2-.1v4.6l-2.3.2c-.4-1.9-2.2-3.2-4.2-3-1.5.1-2.4 1.3-2.4 2.3 0 1.1.9 1.4 2.2 1.5h.2l1.6.3 2 .3c2.6.5 3.9 1.8 3.9 4 0 3-2.5 5.3-6 5.6-1.9.2-3.3-.4-4-.7-.3-.1-.5-.2-.6-.2h-.1c-.2 0-.5 0-.8.3l-.2.3-2 .2v-4.4l2.4-.2c.7 2.3 1.9 3.1 4.1 2.9 1.6-.1 2.7-1 2.7-2.1"/></g><defs><path id="Q" d="M295.6 0v75.8H0V0"/></defs><clipPath id="R"><use xlink:href="#Q" overflow="visible"/></clipPath><g clip-path="url(#R)"><g opacity=".65"><defs><path id="S" d="M201.1 27.8h13.1v20.9h-13.1z"/></defs><clipPath id="T"><use xlink:href="#S" overflow="visible"/></clipPath><path clip-path="url(#T)" d="M208.8 27.8c0 1.9 0 3.8.1 5.7 1.7-.1 3.4-.2 5.1-.2v1.9l-5.3.2c0 2.8 0 5.5.1 8.3 0 .6 0 2.5 1.6 2.4 2.1-.1 2.1-2.9 2.1-3.9v-1.3c.6 0 1.2 0 1.7-.1V42c0 4.4-1.4 6.4-4.8 6.5-3.3.1-5-1.4-5-4.4l-.1-8.6-3.2.2v-1.9l2.1-.1c2-.1 2.7-.9 2.7-3.2v-2.7c.9.1 1.9 0 2.9 0"/></g><defs><path id="U" d="M295.6 0v75.8H0V0"/></defs><clipPath id="V"><use xlink:href="#U" overflow="visible"/></clipPath><g clip-path="url(#V)"><g opacity=".65"><defs><path id="W" d="M232.5 33.2h16.9v15.6h-16.9z"/></defs><clipPath id="X"><use xlink:href="#W" overflow="visible"/></clipPath><path clip-path="url(#X)" d="M245.2 33.2c2.5.2 4.2 1.9 4.2 4.2 0 1.9-1.1 3.1-2.8 3-1.3-.1-2.2-1.1-2.3-2.2 0-.3.1-.6.3-.9.2-.3.3-.4.3-.6 0-.5-.5-.9-1-.9-2.1-.2-3.5 2.2-3.4 5.9v3.1c0 .6 0 1 .3 1.3.3.3.7.4 1.3.4l2.7.2v2.1c-4-.3-8.1-.6-12.1-.7V46l2.2.1c.3 0 .6 0 .9-.2.2-.2.3-.6.3-1.2v-.5l-.1-7.1v-.3c0-.5 0-.9-.3-1.1-.2-.3-.6-.3-.9-.3-.7 0-1.5 0-2.2-.1v-2.1c2.5.1 5 .2 7.4.3V37c1.4-2.5 3.2-4 5.2-3.8"/></g><defs><path id="Y" d="M295.6 0v75.8H0V0"/></defs><clipPath id="Z"><use xlink:href="#Y" overflow="visible"/></clipPath><g clip-path="url(#Z)"><g opacity=".65"><defs><path id="aa" d="M141.3 31.6h5.6v5.7h-5.6z"/></defs><clipPath id="ab"><use xlink:href="#aa" overflow="visible"/></clipPath><path clip-path="url(#ab)" d="M141.3 34.7c0-1.6 1.1-2.9 2.7-3.1 1.6-.2 2.9.9 2.9 2.5s-1.2 3-2.8 3.2c-1.6.1-2.8-1-2.8-2.6"/></g><defs><path id="ac" d="M295.6 0v75.8H0V0"/></defs><clipPath id="ad"><use xlink:href="#ac" overflow="visible"/></clipPath><g opacity=".65" clip-path="url(#ad)"><defs><path id="ae" d="M176.2 26.7h5.6v5.7h-5.6z"/></defs><clipPath id="af"><use xlink:href="#ae" overflow="visible"/></clipPath><path clip-path="url(#af)" d="M176.2 29.8c0-1.6 1.1-2.9 2.7-3.1 1.6-.2 2.9.9 2.9 2.5s-1.2 2.9-2.8 3.1c-1.5.3-2.7-.9-2.8-2.5"/></g><path clip-path="url(#ad)" fill="none" d="M295.6 0v75.8H0V0"/></g></g></g></g></g></g></g></g></g></svg>