<svg xmlns="http://www.w3.org/2000/svg" width="403.4" height="387.8" viewBox="102 307.2 403.4 387.8"><path fill="#fff" d="M505.4 502.7c-.1-22.9-17.7-41.6-40.5-44.3 16.5-14.2 21.1-38.1 9.6-57-10.6-17.5-31.6-25.4-51-20.7 4.5-19-4-39.2-22.3-49.1-18.2-9.9-40.6-6.5-55.2 7-5.9-18.5-23.7-31.7-44.8-31.4-21 .3-38.8 14.1-44.6 32.8-14.7-13-37.1-15.7-55.2-5.3-18.2 10.5-26.6 31-22 49.8-19.5-4.1-40.4 4.4-50.9 22.3s-7.2 39.5 6.5 53.5c-19.1 6-33 23.4-33 43.9.1 20.4 14 37.5 33.2 42.8-13.6 14.4-16.7 36.2-6.1 53.7s31.6 25.4 51 20.7c-4.5 19 4 39.2 22.3 49.1 18.3 9.9 40.6 6.5 55.2-7 5.9 18.5 23.7 31.7 44.8 31.4 21-.3 38.8-14.1 44.6-32.8 14.7 13 37 15.8 55.2 5.2 18.2-10.5 26.6-31 22-49.8 19.5 4.1 40.4-4.4 50.9-22.3 9.4-16 7.8-35-2.4-48.8 19-5.9 32.8-23.3 32.7-43.7"/><path d="M398.1 512.4c0-15.1-12.4-27.3-27.6-27.3-21.8-.9-44-1.3-66.8-1.3-22.7 0-45 .4-66.8 1.3-15.2 0-27.6 12.2-27.6 27.3-.9 11.9-1.3 23.9-1.3 35.8 0 11.9.4 23.9 1.3 35.8 0 15.1 12.4 27.3 27.6 27.3 21.8.9 44 1.3 66.8 1.3 22.7 0 45-.4 66.8-1.3 15.3 0 27.6-12.2 27.6-27.3.9-11.9 1.3-23.9 1.3-35.8 0-11.9-.4-23.8-1.3-35.8"/><path stroke="#000" stroke-width=".333" stroke-linecap="square" stroke-linejoin="bevel" d="M398.1 512.4c0-15.1-12.4-27.3-27.6-27.3-21.8-.9-44-1.3-66.8-1.3-22.7 0-45 .4-66.8 1.3-15.2 0-27.6 12.2-27.6 27.3-.9 11.9-1.3 23.9-1.3 35.8 0 11.9.4 23.9 1.3 35.8 0 15.1 12.4 27.3 27.6 27.3 21.8.9 44 1.3 66.8 1.3 22.7 0 45-.4 66.8-1.3 15.3 0 27.6-12.2 27.6-27.3.9-11.9 1.3-23.9 1.3-35.8 0-11.9-.4-23.8-1.3-35.8z" fill="none"/><path d="M239.7 383.5h13.1l8.5 33.8h.8l8.1-33.8h13.3L268.3 433v35.2h-13.1v-33.6z"/><path stroke="#000" stroke-width=".333" stroke-linecap="square" stroke-linejoin="bevel" fill="none" d="M239.7 383.5h13.1l8.5 33.8h.8l8.1-33.8h13.3L268.3 433v35.2h-13.1v-33.6z"/><path d="M282.9 420c0-4.8 1.6-8.7 4.7-11.6 3.1-2.9 7.3-4.3 12.6-4.3 4.8 0 8.7 1.5 11.8 4.5 3.1 3 4.6 6.9 4.6 11.7v32.2c0 5.3-1.5 9.5-4.5 12.6-3 3-7.1 4.6-12.4 4.6-5.1 0-9.1-1.6-12.2-4.7-3-3.1-4.6-7.4-4.6-12.7V420zm12 33.5c0 1.7.4 3 1.2 4 .8.9 2 1.4 3.5 1.4 1.6 0 2.8-.5 3.7-1.4.9-1 1.4-2.3 1.4-4v-34c0-1.4-.5-2.5-1.4-3.3-.9-.8-2.2-1.3-3.7-1.3-1.4 0-2.6.4-3.5 1.3-.9.8-1.3 1.9-1.3 3.3v34z"/><path stroke="#000" stroke-width=".333" stroke-linecap="square" stroke-linejoin="bevel" d="M282.9 420c0-4.8 1.6-8.7 4.7-11.6 3.1-2.9 7.3-4.3 12.6-4.3 4.8 0 8.7 1.5 11.8 4.5 3.1 3 4.6 6.9 4.6 11.7v32.2c0 5.3-1.5 9.5-4.5 12.6-3 3-7.1 4.6-12.4 4.6-5.1 0-9.1-1.6-12.2-4.7-3-3.1-4.6-7.4-4.6-12.7V420zm12 33.5c0 1.7.4 3 1.2 4 .8.9 2 1.4 3.5 1.4 1.6 0 2.8-.5 3.7-1.4.9-1 1.4-2.3 1.4-4v-34c0-1.4-.5-2.5-1.4-3.3-.9-.8-2.2-1.3-3.7-1.3-1.4 0-2.6.4-3.5 1.3-.9.8-1.3 1.9-1.3 3.3v34z" fill="none"/><path d="M359.6 405.7v62.4H348v-6.9c-2.1 2.5-4.4 4.5-6.7 5.8-2.3 1.3-4.6 2-6.7 2-2.7 0-4.7-.9-6.1-2.8-1.4-1.9-2-4.6-2-8.4v-52.2h11.6v47.9c0 1.5.2 2.6.7 3.2.5.7 1.3 1 2.4 1 .9 0 1.9-.4 3.2-1.3 1.3-.9 2.5-2 3.6-3.4v-47.4h11.6z"/><path stroke="#000" stroke-width=".333" stroke-linecap="square" stroke-linejoin="bevel" d="M359.6 405.7v62.4H348v-6.9c-2.1 2.5-4.4 4.5-6.7 5.8-2.3 1.3-4.6 2-6.7 2-2.7 0-4.7-.9-6.1-2.8-1.4-1.9-2-4.6-2-8.4v-52.2h11.6v47.9c0 1.5.2 2.6.7 3.2.5.7 1.3 1 2.4 1 .9 0 1.9-.4 3.2-1.3 1.3-.9 2.5-2 3.6-3.4v-47.4h11.6z" fill="none"/><path fill="#fff" d="M262.1 504.5H222v12.3h13.5v72.4h13.1v-72.4h13.5v-12.3zm21.4 69.6c-1.1 1.4-2.3 2.5-3.6 3.4-1.3.9-2.4 1.3-3.2 1.3-1.1 0-1.9-.3-2.4-1s-.7-1.7-.7-3.2v-47.9H262v52.2c0 3.7.7 6.5 2 8.4 1.4 1.9 3.4 2.8 6.1 2.8 2.2 0 4.4-.7 6.7-2s4.5-3.3 6.7-5.8v6.9h11.6v-62.4h-11.6v47.3zm44.9-48.2c-1.8 0-3.6.5-5.3 1.5-1.8 1-3.4 2.4-5 4.3v-27.2h-11.7v84.6h11.7v-4.8c1.5 1.9 3.2 3.3 5 4.2 1.8.9 3.8 1.4 6.1 1.4 3.4 0 6.1-1.2 7.9-3.5 1.8-2.4 2.7-5.8 2.7-10.2v-34.6c0-5.1-1-9-2.9-11.6-2-2.8-4.8-4.1-8.5-4.1m-.6 48.6c0 2-.3 3.4-1 4.3-.7.9-1.7 1.3-3.1 1.3-1 0-1.9-.2-2.8-.7-.9-.4-1.8-1.2-2.7-2.2v-38.9c.8-.9 1.6-1.5 2.4-1.9.8-.4 1.6-.6 2.5-.6 1.6 0 2.8.5 3.6 1.6.8 1.1 1.2 2.7 1.2 4.8l-.1 32.3zm54.9-15.1v-15.9c0-5.9-1.4-10.5-4.3-13.6-2.9-3.2-6.9-4.7-12.2-4.7-5.2 0-9.4 1.7-12.7 5.1-3.3 3.4-4.9 7.8-4.9 13.2v28c0 6 1.5 10.7 4.5 14.2 3 3.4 7.1 5.1 12.3 5.1 5.8 0 10.1-1.6 13-4.9 2.9-3.2 4.4-8.1 4.4-14.5v-4.7h-11.9v4.3c0 3.7-.4 6-1.1 7.1-.8 1.1-2.1 1.6-4 1.6-1.8 0-3.2-.6-3.9-1.9-.8-1.3-1.1-3.5-1.1-6.8v-11.8h21.9zm-22.2-16.1c0-2.6.4-4.5 1.2-5.6.8-1.1 2.1-1.7 4-1.7 1.8 0 3.1.6 3.9 1.7.8 1.1 1.2 3 1.2 5.6v6.3h-10.3v-6.3z"/></svg>