<svg xmlns="http://www.w3.org/2000/svg" viewBox="0 0 402.6 386.91"><defs><style>.a{fill:#fff;}</style></defs><title>some-instagram</title><path class="a" d="M402.6 195.11c-.1-22.9-17.7-41.5-40.4-44.2 16.5-14.2 21.1-38 9.6-56.9-10.6-17.5-31.5-25.4-50.9-20.7a44 44 0 0 0-22.3-49 47.89 47.89 0 0 0-55.1 7c-5.9-18.5-23.7-31.6-44.7-31.3s-38.7 14.1-44.5 32.7a47.67 47.67 0 0 0-55.1-5.3c-18.2 10.5-26.6 30.9-22 49.7a47.63 47.63 0 0 0-50.8 22.3 44 44 0 0 0 6.5 53.4c-19.1 6-32.9 23.4-32.9 43.8s14 37.4 33.1 42.7c-13.6 14.4-16.7 36.1-6.1 53.6s31.5 25.4 50.9 20.7a44 44 0 0 0 22.3 49 47.86 47.86 0 0 0 55.1-7c5.9 18.5 23.7 31.6 44.7 31.3s38.7-14.1 44.5-32.7a47.31 47.31 0 0 0 55.1 5.2c18.2-10.5 26.6-30.9 22-49.7a47.63 47.63 0 0 0 50.8-22.3 43.94 43.94 0 0 0-2.4-48.7c18.9-5.9 32.7-23.3 32.6-43.6"/><path d="M200.52 117.56c24.73 0 27.65.09 37.42.54 9 .41 13.93 1.92 17.19 3.19a30.67 30.67 0 0 1 17.57 17.57c1.27 3.26 2.78 8.17 3.19 17.19.45 9.76.54 12.69.54 37.42s-.09 27.65-.54 37.42c-.41 9-1.92 13.93-3.19 17.19a30.67 30.67 0 0 1-17.57 17.57c-3.26 1.27-8.17 2.78-17.19 3.19-9.76.45-12.69.54-37.42.54s-27.66-.09-37.42-.54c-9-.41-13.93-1.92-17.19-3.19a30.67 30.67 0 0 1-17.57-17.57c-1.27-3.26-2.78-8.17-3.19-17.19-.45-9.76-.54-12.69-.54-37.42s.09-27.65.54-37.42c.41-9 1.92-13.93 3.19-17.19a30.67 30.67 0 0 1 17.57-17.57c3.26-1.27 8.17-2.78 17.19-3.19 9.76-.45 12.69-.54 37.42-.54m0-16.68c-25.15 0-28.3.11-38.18.56s-16.59 2-22.48 4.3a47.35 47.35 0 0 0-27.08 27.08c-2.29 5.89-3.85 12.62-4.3 22.48s-.56 13-.56 38.18.11 28.3.56 38.18 2 16.59 4.3 22.48a47.35 47.35 0 0 0 27.08 27.08c5.89 2.29 12.62 3.85 22.48 4.3s13 .56 38.18.56 28.3-.11 38.18-.56 16.59-2 22.48-4.3a47.35 47.35 0 0 0 27.08-27.08c2.29-5.89 3.85-12.62 4.3-22.48s.56-13 .56-38.18-.11-28.3-.56-38.18-2-16.59-4.3-22.48a47.35 47.35 0 0 0-27.08-27.08c-5.89-2.29-12.62-3.85-22.48-4.3s-13-.56-38.18-.56zm0 45.03a47.55 47.55 0 1 0 47.55 47.55 47.55 47.55 0 0 0-47.55-47.55zm0 78.42a30.87 30.87 0 1 1 30.87-30.87 30.87 30.87 0 0 1-30.87 30.87z"/><circle cx="249.96" cy="144.02" r="11.11"/></svg>