<svg xmlns="http://www.w3.org/2000/svg" width="403.4" height="387.8" viewBox="102 307.2 403.4 387.8"><path fill="#fff" d="M505.4 502.7c-.1-22.9-17.7-41.6-40.5-44.3 16.5-14.2 21.1-38.1 9.6-57-10.6-17.5-31.6-25.4-51-20.7 4.5-19-4-39.2-22.3-49.1-18.2-9.9-40.6-6.5-55.2 7-5.9-18.5-23.7-31.7-44.8-31.4-21 .3-38.8 14.1-44.6 32.8-14.7-13-37.1-15.7-55.2-5.3-18.2 10.5-26.6 31-22 49.8-19.5-4.1-40.4 4.4-50.9 22.3s-7.2 39.5 6.5 53.5c-19.1 6-33 23.4-33 43.9.1 20.4 14 37.5 33.2 42.8-13.6 14.4-16.7 36.2-6.1 53.7s31.6 25.4 51 20.7c-4.5 19 4 39.2 22.3 49.1 18.3 9.9 40.6 6.5 55.2-7 5.9 18.5 23.7 31.7 44.8 31.4 21-.3 38.8-14.1 44.6-32.8 14.7 13 37 15.8 55.2 5.2 18.2-10.5 26.6-31 22-49.8 19.5 4.1 40.4-4.4 50.9-22.3 9.4-16 7.8-35-2.4-48.8 19-5.9 32.8-23.3 32.7-43.7"/><path d="M308.9 393.3c-60.7 0-91.3 43.5-91.3 79.8 0 22 8.3 41.5 26.2 48.8 2.9 1.2 5.5 0 6.4-3.2.6-2.2 2-7.9 2.6-10.3.9-3.2.5-4.3-1.8-7.1-5.1-6.1-8.4-13.9-8.4-25 0-32.3 24.2-61.2 62.9-61.2 34.3 0 53.1 21 53.1 49 0 36.8-16.3 67.9-40.5 67.9-13.4 0-23.4-11.1-20.2-24.6 3.8-16.2 11.3-33.6 11.3-45.3 0-10.5-5.6-19.2-17.2-19.2-13.7 0-24.6 14.1-24.6 33.1 0 12.1 4.1 20.2 4.1 20.2s-14 59.2-16.4 69.6c-4.9 20.7-.7 46-.4 48.5.2 1.5 2.2 1.9 3 .7 1.3-1.6 17.5-21.7 23.1-41.8 1.6-5.7 9-35.1 9-35.1 4.4 8.5 17.4 15.9 31.2 15.9 41.1 0 68.9-37.4 68.9-87.5-.1-37.9-32.2-73.2-81-73.2z"/></svg>